<svg width="16" height="116" viewBox="0 0 16 116" fill="none" xmlns="http://www.w3.org/2000/svg">
<path d="M8 0C12.4183 0 16 3.58172 16 8C16 12.0795 12.9462 15.4433 9 15.9355V50.0635C12.9462 50.5557 16 53.9204 16 58C16 62.0795 12.9462 65.4433 9 65.9355V100.063C12.9462 100.556 16 103.92 16 108C16 112.418 12.4183 116 8 116C3.58172 116 0 112.418 0 108C0 103.92 3.05378 100.556 7 100.063V65.9355C3.05384 65.4433 0 62.0795 0 58C0 53.9204 3.05378 50.5557 7 50.0635V15.9355C3.05384 15.4433 0 12.0795 0 8C0 3.58172 3.58172 0 8 0Z" fill="url(#paint0_linear_73_302)"/>
<defs>
<linearGradient id="paint0_linear_73_302" x1="9" y1="124" x2="9" y2="1.96486e-07" gradientUnits="userSpaceOnUse">
<stop stop-color="white"/>
<stop offset="1" stop-color="#FF0000"/>
</linearGradient>
</defs>
</svg>
