<svg width="1606" height="560" viewBox="0 0 1606 560" fill="none" xmlns="http://www.w3.org/2000/svg">
<path d="M0 220C0 135.5 68.5004 67 153 67H1132.82C1157.35 67 1181.09 75.611 1199.92 91.3303C1236.49 121.87 1289.07 123.859 1327.84 96.1706L1337.42 89.3272C1357.76 74.806 1382.12 67 1407.11 67H1453C1537.5 67 1606 135.5 1606 220V407C1606 491.5 1537.5 560 1453 560H153C68.5005 560 0 491.5 0 407V220Z" fill="white"/>
<path d="M1424.64 150.273L1425.36 130.273L1408.45 141L1404.09 133.364L1421.91 124.091L1404.09 114.818L1408.45 107.182L1425.36 117.909L1424.64 97.9091H1433.36L1432.64 117.909L1449.55 107.182L1453.91 114.818L1436.09 124.091L1453.91 133.364L1449.55 141L1432.64 130.273L1433.36 150.273H1424.64Z" fill="#D62020"/>
<circle cx="1265" cy="44" r="44" fill="white"/>
<path d="M1235.07 46.7982C1263.88 46.5794 1259.25 61.9866 1259.43 77.7407C1259.89 52.5048 1273.93 46.3168 1279.94 45.5565C1271.49 46.0481 1263.41 45.5565 1263.41 45.5565C1263.41 45.5565 1263.68 31.9744 1263.03 9.90418C1263.03 9.90418 1263.11 46.5852 1235.07 46.7982Z" fill="black"/>
<path d="M1294.96 46.4223C1266.34 46.6397 1271.12 61.9603 1271.13 77.7001C1270.37 52.4983 1256.35 46.5295 1250.36 45.861C1258.76 46.2243 1266.79 45.6108 1266.79 45.6108C1266.79 45.6108 1266.35 32.0475 1266.74 9.99116C1266.74 9.99116 1267.09 46.634 1294.96 46.4223Z" fill="black"/>
</svg>
