<svg width="52" height="33" viewBox="0 0 52 33" fill="none" xmlns="http://www.w3.org/2000/svg">
<path d="M51.0503 14.4119L36.8965 0.859727C35.6626 -0.319421 33.7021 -0.283078 32.5128 0.944529C31.3275 2.17214 31.3641 4.12258 32.598 5.30576L41.1625 13.5073L3.1174 13.2852H3.09711C1.39638 13.2852 0.00819799 14.6541 7.99673e-05 16.3502C-0.0120971 18.0543 1.36797 19.4434 3.08087 19.4515L41.1463 19.6736L32.6224 27.6732C31.3762 28.8403 31.3194 30.7948 32.4965 32.0345C33.1054 32.6765 33.9294 33.0036 34.7533 33.0036C35.5164 33.0036 36.2795 32.725 36.8803 32.1637L51.034 18.8781C51.651 18.3006 52.0041 17.493 52.0082 16.649C52.0123 15.805 51.6672 14.9974 51.0584 14.4119H51.0503Z" fill="#161616"/>
</svg>
