<svg width="52" height="32" viewBox="0 0 52 32" fill="none" xmlns="http://www.w3.org/2000/svg">
<path d="M0.94973 14.4128L15.1035 0.860704C16.3374 -0.318445 18.2979 -0.282101 19.4872 0.945505C20.6725 2.17311 20.6359 4.12355 19.402 5.30674L10.8375 13.5083L48.8826 13.2862H48.9029C50.6036 13.2862 51.9918 14.6551 51.9999 16.3512C52.0121 18.0553 50.632 19.4444 48.9191 19.4525L10.8537 19.6746L19.3776 27.6742C20.6238 28.8412 20.6806 30.7957 19.5035 32.0354C18.8946 32.6775 18.0706 33.0046 17.2467 33.0046C16.4836 33.0046 15.7205 32.726 15.1197 32.1647L0.965965 18.8791C0.348995 18.3016 -0.00413895 17.494 -0.00819778 16.65C-0.0122566 15.806 0.33276 14.9984 0.941612 14.4128H0.94973Z" fill="#161616"/>
</svg>
