<svg width="88" height="88" viewBox="0 0 88 88" fill="none" xmlns="http://www.w3.org/2000/svg">
<circle cx="44" cy="44" r="44" fill="black"/>
<path d="M14.069 46.7987C42.875 46.5799 38.2484 61.9871 38.4257 77.7412C38.8863 52.5053 52.9252 46.3173 58.9387 45.557C50.4943 46.0486 42.4076 45.557 42.4076 45.557C42.4076 45.557 42.6841 31.9749 42.03 9.90466C42.03 9.90466 42.1137 46.5857 14.069 46.7987Z" fill="white"/>
<path d="M73.9632 46.4218C45.3391 46.6392 50.1181 61.9598 50.1281 77.6996C49.3723 52.4978 35.3503 46.529 29.3663 45.8605C37.7624 46.2238 45.7915 45.6103 45.7915 45.6103C45.7915 45.6103 45.3563 32.047 45.7453 9.99067C45.7453 9.99067 46.0957 46.6335 73.9632 46.4218Z" fill="white"/>
</svg>
