<svg width="188" height="63" viewBox="0 0 188 63" fill="none" xmlns="http://www.w3.org/2000/svg">
<path d="M25.582 0.116211C26.1804 20.3086 25.9277 32.7354 25.9277 32.7354C25.9495 32.7367 26.8025 32.7856 28.2188 32.8359C28.7371 32.8034 29.0234 32.7842 29.0234 32.7842C29.0234 32.7842 28.6255 20.3741 28.9814 0.194336C28.9814 0.194336 29.3017 33.7197 54.7979 33.5264C28.6097 33.7254 32.982 47.7421 32.9912 62.1426C32.7125 52.8487 30.4599 46.4148 27.5137 42.0039C24.6223 46.4615 22.4532 52.9186 22.2842 62.1807C22.122 47.7671 26.3548 33.671 0 33.8711C25.625 33.6763 25.5822 0.203354 25.582 0.116211ZM101.093 37.0459C101.093 39.2727 101.364 40.9087 101.905 41.9541C102.718 43.8177 104.523 44.7275 107.275 44.7275C110.028 44.7275 111.788 43.8177 112.601 41.9541C113.142 40.9087 113.413 39.2728 113.413 37.0459V16.9092H120.317V37.0459C120.317 40.5002 119.776 43.2277 118.693 45.1367C116.708 48.6821 112.871 50.5 107.275 50.5C101.635 50.4999 97.7992 48.6818 95.8135 45.1367C94.7304 43.2277 94.1885 40.5002 94.1885 37.0459V16.9092H101.093V37.0459ZM77.7314 16.9092C79.9876 16.9547 81.7474 17.2725 82.9658 17.7725C84.1843 18.2725 85.2226 19.0459 86.0801 20.0459C86.802 20.864 87.3439 21.8185 87.75 22.8184C88.2012 23.8183 88.3818 24.9549 88.3818 26.2275C88.3818 27.8183 87.9751 29.3184 87.208 30.8184C86.4408 32.3183 85.132 33.4091 83.3721 34C84.8613 34.5909 85.8995 35.4545 86.5312 36.5908C87.163 37.7272 87.4785 39.4094 87.4785 41.7275V43.9092C87.4785 45.4087 87.5239 46.4086 87.6592 46.9541C87.8397 47.7723 88.2461 48.4093 88.8779 48.8184V49.6367H81.4316C81.206 48.9094 81.0707 48.3178 80.9805 47.8633C80.8 46.9544 80.71 46.0002 80.71 45.0459L80.6641 42.0459C80.6189 39.955 80.2582 38.5451 79.5361 37.8633C78.814 37.1816 77.4151 36.8184 75.4297 36.8184H68.4346V49.6367H61.8008V16.9092H77.7314ZM140.746 16.9092C142.777 16.9546 144.447 17.1822 145.801 17.6367C148.057 18.4094 149.908 19.7725 151.307 21.7725C152.435 23.4088 153.202 25.1823 153.608 27.0459C154.06 28.9548 154.24 30.7729 154.24 32.5C154.24 36.8182 153.382 40.5004 151.622 43.5459C149.275 47.5911 145.665 49.6367 140.746 49.6367H126.757V16.9092H140.746ZM187.801 49.6367H180.445L178.369 42.9092H166.365L164.153 49.6367H157.023L168.621 16.9092H176.293L187.801 49.6367ZM133.346 43.9541H139.618C142.822 43.9541 145.033 42.3635 146.297 39.1816C146.974 37.4089 147.335 35.3632 147.335 32.9541C147.335 29.6361 146.839 27.0451 145.801 25.2725C144.763 23.4999 142.687 22.5908 139.618 22.5908H133.346V43.9541ZM168.215 37.2725H176.474L172.412 24.4092L168.215 37.2725ZM68.4346 31.4092H76.1064C77.6408 31.4092 78.769 31.2269 79.5361 30.8633C80.8899 30.2269 81.5674 28.9998 81.5674 27.1816C81.5673 25.1817 80.8895 23.8634 79.626 23.1816C78.8588 22.8181 77.776 22.5908 76.2871 22.5908H68.4346V31.4092ZM176.9 13H170.183L175.449 0H181.605L176.9 13Z" fill="white"/>
</svg>
