<svg width="189" height="65" viewBox="0 0 189 65" fill="none" xmlns="http://www.w3.org/2000/svg">
<path d="M25.582 2.11621C26.1804 22.3086 25.9277 34.7354 25.9277 34.7354C25.9471 34.7365 26.8006 34.7855 28.2188 34.8359C28.7294 34.8039 29.0149 34.7848 29.0234 34.7842C29.0234 34.7842 28.6255 22.3741 28.9814 2.19434C28.9814 2.19434 29.3023 35.72 54.7988 35.5264C28.6102 35.7253 32.982 49.7421 32.9912 64.1426C32.7125 54.8489 30.4608 48.4148 27.5146 44.0039C24.6231 48.4615 22.4532 54.9184 22.2842 64.1807C22.122 49.7671 26.3549 35.6709 0 35.8711C25.625 35.6763 25.5822 2.20331 25.582 2.11621ZM151.272 46.0479H154.632V59.3926H148.393V52H126.648V59.3926H120.408V46.0479H123.433C123.817 45.088 124.152 44.0801 124.536 43.0723C124.872 42.0643 125.208 40.9598 125.496 39.7598C125.832 38.5599 126.12 37.264 126.36 35.8721C126.648 34.4322 126.84 32.8483 127.032 31.0244C127.272 29.2485 127.417 27.2323 127.561 25.0244C127.657 22.8164 127.752 20.3201 127.8 17.5361H151.272V46.0479ZM104.904 36.0645L111.769 17.5361H119.497L108.505 42.9766C107.065 46.3364 105.576 48.8321 103.944 50.416C102.312 52.0479 100.536 52.8643 98.5684 52.8643C97.8965 52.8643 97.3684 52.8645 96.9365 52.7686C96.4566 52.7205 96.0723 52.6243 95.7363 52.5283L94.8252 52.2402C94.5852 52.1442 94.3445 52.048 94.1045 52V45.4717C94.5365 45.7597 95.0646 46.0005 95.6885 46.1445C96.2645 46.3365 96.9371 46.4326 97.7051 46.4326C98.6649 46.4326 99.4329 46.1442 100.009 45.5684C100.585 44.9924 100.969 44.2243 101.161 43.3604L88.9688 17.5361H97.0811L104.904 36.0645ZM75.3848 17.5361C77.2086 17.5362 78.7927 17.8237 80.1846 18.3037C81.5284 18.7837 82.632 19.5041 83.5439 20.4639C84.4079 21.4238 85.0807 22.5759 85.5127 23.9678C85.9447 25.3118 86.1846 26.8482 86.1846 28.5762C86.1846 30.2082 85.896 31.6962 85.416 32.9922C84.888 34.3841 84.1201 35.5361 83.1602 36.4961C82.2002 37.504 81.0003 38.2718 79.6084 38.7998C78.1685 39.3278 76.5845 39.6162 74.8086 39.6162H66.9365V52H59.7363V17.5361H75.3848ZM188.919 52H181.095L178.887 44.8965H166.167L163.767 52H156.183L168.519 17.5361H176.727L188.919 52ZM134.136 23.4883C134.088 24.1122 134.088 24.928 134.088 25.8877C134.04 26.8477 133.992 27.9045 133.896 29.1045C133.848 30.3044 133.752 31.6003 133.608 32.9922C133.416 34.3361 133.224 35.7759 132.984 37.2158C132.744 38.7037 132.408 40.1918 132.024 41.6797C131.64 43.1676 131.16 44.6079 130.632 46.0479H144.072V23.4883H134.136ZM168.087 38.9443H176.871L172.599 25.3125H172.503L168.087 38.9443ZM66.9365 33.6641H73.752C75.384 33.6641 76.6808 33.2799 77.5928 32.4639C78.5045 31.6958 78.9844 30.3999 78.9844 28.5762C78.9844 27.6643 78.8404 26.8964 78.6484 26.2725C78.3605 25.6487 78.0246 25.0725 77.5928 24.6885C77.1608 24.2565 76.584 23.9684 75.96 23.7764C75.288 23.5844 74.5678 23.4883 73.752 23.4883H66.9365V33.6641ZM176.52 13H169.801L175.068 0H181.224L176.52 13Z" fill="black"/>
</svg>
