<svg xmlns="http://www.w3.org/2000/svg">
    <symbol id="icon-logo-white" viewBox="0 0 189 65">
        <path d="M25.582 2.11621C26.1804 22.3086 25.9277 34.7354 25.9277 34.7354C25.9471 34.7365 26.8006 34.7855 28.2188 34.8359C28.7294 34.8039 29.0149 34.7848 29.0234 34.7842C29.0234 34.7842 28.6255 22.3741 28.9814 2.19434C28.9814 2.19434 29.3023 35.72 54.7988 35.5264C28.6102 35.7253 32.982 49.7421 32.9912 64.1426C32.7125 54.8489 30.4608 48.4148 27.5146 44.0039C24.6223 48.4615 22.4532 54.9184 22.2842 64.1807C22.122 49.7671 26.3549 35.6709 0 35.8711C25.625 35.6763 25.5822 2.20331 25.582 2.11621ZM151.272 46.0479H154.632V59.3926H148.393V52H126.648V59.3926H120.408V46.0479H123.433C123.817 45.088 124.152 44.0801 124.536 43.0723C124.872 42.0643 125.208 40.9598 125.496 39.7598C125.832 38.5599 126.12 37.264 126.36 35.8721C126.648 34.4322 126.84 32.8483 127.032 31.0244C127.272 29.2485 127.417 27.2323 127.561 25.0244C127.657 22.8164 127.752 20.3201 127.8 17.5361H151.272V46.0479ZM104.904 36.0645L111.769 17.5361H119.497L108.505 42.9766C107.065 46.3364 105.576 48.8321 103.944 50.416C102.312 52.0479 100.536 52.8643 98.5684 52.8643C97.8965 52.8643 97.3684 52.8645 96.9365 52.7686C96.4566 52.7205 96.0723 52.6243 95.7363 52.5283L94.8252 52.2402C94.5852 52.1442 94.3445 52.048 94.1045 52V45.4717C94.5365 45.7597 95.0646 46.0005 95.6885 46.1445C96.2645 46.3365 96.9371 46.4326 97.7051 46.4326C98.6649 46.4326 99.4329 46.1442 100.009 45.5684C100.585 44.9924 100.969 44.2243 101.161 43.3604L88.9688 17.5361H97.0811L104.904 36.0645ZM75.3848 17.5361C77.2086 17.5362 78.7927 17.8237 80.1846 18.3037C81.5284 18.7837 82.632 19.5041 83.5439 20.4639C84.4079 21.4238 85.0807 22.5759 85.5127 23.9678C85.9447 25.3118 86.1846 26.8482 86.1846 28.5762C86.1846 30.2082 85.896 31.6962 85.416 32.9922C84.888 34.3841 84.1201 35.5361 83.1602 36.4961C82.2002 37.504 81.0003 38.2718 79.6084 38.7998C78.1685 39.3278 76.5845 39.6162 74.8086 39.6162H66.9365V52H59.7363V17.5361H75.3848ZM188.919 52H181.095L178.887 44.8965H166.167L163.767 52H156.183L168.519 17.5361H176.727L188.919 52ZM134.136 23.4883C134.088 24.1122 134.088 24.928 134.088 25.8877C134.04 26.8477 133.992 27.9045 133.896 29.1045C133.848 30.3044 133.752 31.6003 133.608 32.9922C133.416 34.3361 133.224 35.7759 132.984 37.2158C132.744 38.7037 132.408 40.1918 132.024 41.6797C131.64 43.1676 131.16 44.6079 130.632 46.0479H144.072V23.4883H134.136ZM168.087 38.9443H176.871L172.599 25.3125H172.503L168.087 38.9443ZM66.9365 33.6641H73.752C75.384 33.6641 76.6808 33.2799 77.5928 32.4639C78.5045 31.6958 78.9844 30.3999 78.9844 28.5762C78.9844 27.6643 78.8404 26.8964 78.6484 26.2725C78.3605 25.6487 78.0246 25.0725 77.5928 24.6885C77.1608 24.2565 76.584 23.9684 75.96 23.7764C75.288 23.5844 74.5678 23.4883 73.752 23.4883H66.9365V33.6641ZM176.52 13H169.801L175.068 0H181.224L176.52 13Z" fill="black"/>
    </symbol>
    <symbol id="icon-logo-black" viewBox="0 0 189 65">
        <path d="M25.582 2.11621C26.1804 22.3086 25.9277 34.7354 25.9277 34.7354C25.9471 34.7365 26.8006 34.7855 28.2188 34.8359C28.7294 34.8039 29.0149 34.7848 29.0234 34.7842C29.0234 34.7842 28.6255 22.3741 28.9814 2.19434C28.9814 2.19434 29.3023 35.72 54.7988 35.5264C28.6102 35.7253 32.982 49.7421 32.9912 64.1426C32.7125 54.8489 30.4608 48.4148 27.5146 44.0039C24.6223 48.4615 22.4532 54.9184 22.2842 64.1807C22.122 49.7671 26.3549 35.6709 0 35.8711C25.625 35.6763 25.5822 2.20331 25.582 2.11621ZM151.272 46.0479H154.632V59.3926H148.393V52H126.648V59.3926H120.408V46.0479H123.433C123.817 45.088 124.152 44.0801 124.536 43.0723C124.872 42.0643 125.208 40.9598 125.496 39.7598C125.832 38.5599 126.12 37.264 126.36 35.8721C126.648 34.4322 126.84 32.8483 127.032 31.0244C127.272 29.2485 127.417 27.2323 127.561 25.0244C127.657 22.8164 127.752 20.3201 127.8 17.5361H151.272V46.0479ZM104.904 36.0645L111.769 17.5361H119.497L108.505 42.9766C107.065 46.3364 105.576 48.8321 103.944 50.416C102.312 52.0479 100.536 52.8643 98.5684 52.8643C97.8965 52.8643 97.3684 52.8645 96.9365 52.7686C96.4566 52.7205 96.0723 52.6243 95.7363 52.5283L94.8252 52.2402C94.5852 52.1442 94.3445 52.048 94.1045 52V45.4717C94.5365 45.7597 95.0646 46.0005 95.6885 46.1445C96.2645 46.3365 96.9371 46.4326 97.7051 46.4326C98.6649 46.4326 99.4329 46.1442 100.009 45.5684C100.585 44.9924 100.969 44.2243 101.161 43.3604L88.9688 17.5361H97.0811L104.904 36.0645ZM75.3848 17.5361C77.2086 17.5362 78.7927 17.8237 80.1846 18.3037C81.5284 18.7837 82.632 19.5041 83.5439 20.4639C84.4079 21.4238 85.0807 22.5759 85.5127 23.9678C85.9447 25.3118 86.1846 26.8482 86.1846 28.5762C86.1846 30.2082 85.896 31.6962 85.416 32.9922C84.888 34.3841 84.1201 35.5361 83.1602 36.4961C82.2002 37.504 81.0003 38.2718 79.6084 38.7998C78.1685 39.3278 76.5845 39.6162 74.8086 39.6162H66.9365V52H59.7363V17.5361H75.3848ZM188.919 52H181.095L178.887 44.8965H166.167L163.767 52H156.183L168.519 17.5361H176.727L188.919 52ZM134.136 23.4883C134.088 24.1122 134.088 24.928 134.088 25.8877C134.04 26.8477 133.992 27.9045 133.896 29.1045C133.848 30.3044 133.752 31.6003 133.608 32.9922C133.416 34.3361 133.224 35.7759 132.984 37.2158C132.744 38.7037 132.408 40.1918 132.024 41.6797C131.64 43.1676 131.16 44.6079 130.632 46.0479H144.072V23.4883H134.136ZM168.087 38.9443H176.871L172.599 25.3125H172.503L168.087 38.9443ZM66.9365 33.6641H73.752C75.384 33.6641 76.6808 33.2799 77.5928 32.4639C78.5045 31.6958 78.9844 30.3999 78.9844 28.5762C78.9844 27.6643 78.8404 26.8964 78.6484 26.2725C78.3605 25.6487 78.0246 25.0725 77.5928 24.6885C77.1608 24.2565 76.584 23.9684 75.96 23.7764C75.288 23.5844 74.5678 23.4883 73.752 23.4883H66.9365V33.6641ZM176.52 13H169.801L175.068 0H181.224L176.52 13Z" fill="white"/>
    </symbol>
    <symbol id="icon-dot-color" viewBox="0 0 16 116">
        <path d="M8 0C12.4183 0 16 3.58172 16 8C16 12.0795 12.9462 15.4433 9 15.9355V50.0635C12.9462 50.5557 16 53.9204 16 58C16 62.0795 12.9462 65.4433 9 65.9355V100.063C12.9462 100.556 16 103.92 16 108C16 112.418 12.4183 116 8 116C3.58172 116 0 112.418 0 108C0 103.92 3.05378 100.556 7 100.063V65.9355C3.05384 65.4433 0 62.0795 0 58C0 53.9204 3.05378 50.5557 7 50.0635V15.9355C3.05384 15.4433 0 12.0795 0 8C0 3.58172 3.58172 0 8 0Z" fill="url(#paint0_linear_73_302)"/>
        <defs>
        <linearGradient id="paint0_linear_73_302" x1="9" y1="124" x2="9" y2="1.96486e-07" gradientUnits="userSpaceOnUse">
        <stop stop-color="white"/>
        <stop offset="1" stop-color="#FF0000"/>
        </linearGradient>
        </defs>
    </symbol>
    <symbol id="icon-dot-red" viewBox="0 0 16 116">
        <path d="M8 0C12.4183 0 16 3.58172 16 8C16 12.0795 12.9462 15.4433 9 15.9355V50.0635C12.9462 50.5557 16 53.9204 16 58C16 62.0795 12.9462 65.4433 9 65.9355V100.063C12.9462 100.556 16 103.92 16 108C16 112.418 12.4183 116 8 116C3.58172 116 0 112.418 0 108C0 103.92 3.05378 100.556 7 100.063V65.9355C3.05384 65.4433 0 62.0795 0 58C0 53.9204 3.05378 50.5557 7 50.0635V15.9355C3.05384 15.4433 0 12.0795 0 8C0 3.58172 3.58172 0 8 0Z" fill="#D62020"/>
    </symbol>
    <symbol id="icon-left-arrow" viewBox="0 0 52 32">
        <path d="M0.94973 14.4128L15.1035 0.860704C16.3374 -0.318445 18.2979 -0.282101 19.4872 0.945505C20.6725 2.17311 20.6359 4.12355 19.402 5.30674L10.8375 13.5083L48.8826 13.2862H48.9029C50.6036 13.2862 51.9918 14.6551 51.9999 16.3512C52.0121 18.0553 50.632 19.4444 48.9191 19.4525L10.8537 19.6746L19.3776 27.6742C20.6238 28.8412 20.6806 30.7957 19.5035 32.0354C18.8946 32.6775 18.0706 33.0046 17.2467 33.0046C16.4836 33.0046 15.7205 32.726 15.1197 32.1647L0.965965 18.8791C0.348995 18.3016 -0.00413895 17.494 -0.00819778 16.65C-0.0122566 15.806 0.33276 14.9984 0.941612 14.4128H0.94973Z" fill="#161616"/>
    </symbol>
    <symbol id="icon-right-arrow" viewBox="0 0 52 33">
        <path d="M51.0503 14.4119L36.8965 0.859727C35.6626 -0.319421 33.7021 -0.283078 32.5128 0.944529C31.3275 2.17214 31.3641 4.12258 32.598 5.30576L41.1625 13.5073L3.1174 13.2852H3.09711C1.39638 13.2852 0.00819799 14.6541 7.99673e-05 16.3502C-0.0120971 18.0543 1.36797 19.4434 3.08087 19.4515L41.1463 19.6736L32.6224 27.6732C31.3762 28.8403 31.3194 30.7948 32.4965 32.0345C33.1054 32.6765 33.9294 33.0036 34.7533 33.0036C35.5164 33.0036 36.2795 32.725 36.8803 32.1637L51.034 18.8781C51.651 18.3006 52.0041 17.493 52.0082 16.649C52.0123 15.805 51.6672 14.9974 51.0584 14.4119H51.0503Z" fill="#161616"/>
    </symbol>

    <symbol id="icon-white" viewBox="0 0 88 88">
        <circle cx="44" cy="44" r="44" fill="white"/>
        <path d="M14.069 46.7987C42.875 46.5799 38.2484 61.9871 38.4257 77.7412C38.8863 52.5053 52.9252 46.3173 58.9387 45.557C50.4943 46.0486 42.4076 45.557 42.4076 45.557C42.4076 45.557 42.6841 31.9749 42.03 9.90466C42.03 9.90466 42.1137 46.5857 14.069 46.7987Z" fill="black"/>
        <path d="M73.9632 46.4218C45.3391 46.6392 50.1181 61.9598 50.1281 77.6996C49.3723 52.4978 35.3503 46.529 29.3663 45.8605C37.7624 46.2238 45.7915 45.6103 45.7915 45.6103C45.7915 45.6103 45.3563 32.047 45.7453 9.99067C45.7453 9.99067 46.0957 46.6335 73.9632 46.4218Z" fill="black"/>
    </symbol>

    <symbol id="burger-black" width="34" height="34" viewBox="0 0 34 34">
        <circle cx="17" cy="17" r="17" fill="#121212"/>
        <rect x="8" y="21" width="18" height="2" rx="1" fill="white"/>
        <rect x="8" y="16" width="18" height="2" rx="1" fill="white"/>
        <rect x="8" y="11" width="18" height="2" rx="1" fill="white"/>
    </symbol>

    <symbol id="burger-white" width="34" height="34" viewBox="0 0 34 34">
        <circle cx="17" cy="17" r="17" fill="white"/>
        <rect x="8" y="21" width="18" height="2" rx="1" fill="black"/>
        <rect x="8" y="16" width="18" height="2" rx="1" fill="black"/>
        <rect x="8" y="11" width="18" height="2" rx="1" fill="black"/>
    </symbol>

    <symbol id="icon-black" viewBox="0 0 88 88">
        <circle cx="44" cy="44" r="44" fill="black"/>
        <path d="M14.069 46.7987C42.875 46.5799 38.2484 61.9871 38.4257 77.7412C38.8863 52.5053 52.9252 46.3173 58.9387 45.557C50.4943 46.0486 42.4076 45.557 42.4076 45.557C42.4076 45.557 42.6841 31.9749 42.03 9.90466C42.03 9.90466 42.1137 46.5857 14.069 46.7987Z" fill="white"/>
        <path d="M73.9632 46.4218C45.3391 46.6392 50.1181 61.9598 50.1281 77.6996C49.3723 52.4978 35.3503 46.529 29.3663 45.8605C37.7624 46.2238 45.7915 45.6103 45.7915 45.6103C45.7915 45.6103 45.3563 32.047 45.7453 9.99067C45.7453 9.99067 46.0957 46.6335 73.9632 46.4218Z" fill="white"/>
    </symbol>

    <symbol id="icon-mail" viewBox="0 0 24 24">
        <path d="M12 2C6.48 2 2 6.48 2 12s4.48 10 10 10c2.11 0 4.07-.66 5.7-1.77l1.4 1.43 1.41-1.42-1.4-1.43C20.4 17.08 21 14.62 21 12c0-4.96-4.04-9-9-9zm0 16c-3.31 0-6-2.69-6-6s2.69-6 6-6 6 2.69 6 6c0 1.33-.43 2.55-1.16 3.54-.29-.2-.64-.33-1.02-.33-.95 0-1.74.67-1.95 1.57-.6-.42-1.2-.78-1.87-1.07V12c0-2.21-1.79-4-4-4s-4 1.79-4 4 1.79 4 4 4c.97 0 1.85-.35 2.55-.93.51.45 1.18.73 1.92.73.61 0 1.18-.19 1.64-.51.42 1.06 1.43 1.79 2.63 1.79.52 0 1.01-.08 1.47-.23C15.79 17.33 13.98 18 12 18zm-2-4c-1.1 0-2-.9-2-2s.9-2 2-2 2 .9 2 2-.9 2-2 2z" fill="currentColor"/>
    </symbol>

    <symbol id="icon-telegram" viewBox="0 0 24 24">
        <path d="M12 0C5.373 0 0 5.373 0 12s5.373 12 12 12 12-5.373 12-12S18.627 0 12 0zm5.894 8.221l-1.97 9.28c-.145.658-.537.818-1.084.508l-3-2.21-1.446 1.394c-.16.16-.295.295-.605.295l.215-3.054 5.56-5.022c.24-.213-.054-.334-.373-.121l-6.87 4.326-2.962-.924c-.64-.203-.654-.64.135-.948l11.57-4.46c.536-.196 1.005.128.825.932z" fill="currentColor"/>
    </symbol>

    <symbol id="icon-cta-arrow" viewBox="0 0 60 40">
        <line x1="5" y1="20" x2="55" y2="20" stroke="currentColor" stroke-width="2"></line>
        <polyline points="35,5 55,20 35,35" fill="none" stroke="currentColor" stroke-width="2" stroke-linecap="round" stroke-linejoin="round"></polyline>
    </symbol>
</svg>
