<svg xmlns="http://www.w3.org/2000/svg">
    <symbol id="icon-logo-white" viewBox="0 0 188 63">
        <path d="M25.582 0.116211C26.1804 20.3086 25.9277 32.7354 25.9277 32.7354C25.9494 32.7367 26.8024 32.7856 28.2188 32.8359C28.7371 32.8034 29.0234 32.7842 29.0234 32.7842C29.0234 32.7842 28.6255 20.3741 28.9814 0.194336C28.9814 0.194336 29.3017 33.7197 54.7979 33.5264C28.6097 33.7254 32.982 47.7421 32.9912 62.1426C32.7125 52.8487 30.4599 46.4148 27.5137 42.0039C24.6223 46.4615 22.4532 52.9186 22.2842 62.1807C22.122 47.7671 26.3548 33.671 0 33.8711C25.625 33.6763 25.5822 0.203353 25.582 0.116211ZM101.093 37.0459C101.093 39.2727 101.364 40.9087 101.905 41.9541C102.718 43.8177 104.523 44.7275 107.275 44.7275C110.028 44.7275 111.788 43.8177 112.601 41.9541C113.142 40.9087 113.413 39.2728 113.413 37.0459V16.9092H120.317V37.0459C120.317 40.5002 119.776 43.2277 118.693 45.1367C116.708 48.6821 112.871 50.5 107.275 50.5C101.635 50.4999 97.7992 48.6818 95.8135 45.1367C94.7304 43.2277 94.1885 40.5002 94.1885 37.0459V16.9092H101.093V37.0459ZM77.7314 16.9092C79.9875 16.9547 81.7474 17.2725 82.9658 17.7725C84.1843 18.2725 85.2226 19.0459 86.0801 20.0459C86.802 20.864 87.3439 21.8185 87.75 22.8184C88.2012 23.8183 88.3818 24.9549 88.3818 26.2275C88.3818 27.8183 87.9751 29.3184 87.208 30.8184C86.4408 32.3183 85.132 33.4091 83.3721 34C84.8613 34.5909 85.8995 35.4545 86.5312 36.5908C87.163 37.7272 87.4785 39.4094 87.4785 41.7275V43.9092C87.4785 45.4087 87.5239 46.4086 87.6592 46.9541C87.8397 47.7723 88.2461 48.4093 88.8779 48.8184V49.6367H81.4316C81.206 48.9094 81.0707 48.3178 80.9805 47.8633C80.8 46.9544 80.71 46.0002 80.71 45.0459L80.6641 42.0459C80.6189 39.955 80.2582 38.5451 79.5361 37.8633C78.814 37.1816 77.4151 36.8184 75.4297 36.8184H68.4346V49.6367H61.8008V16.9092H77.7314ZM140.746 16.9092C142.777 16.9546 144.447 17.1822 145.801 17.6367C148.057 18.4094 149.908 19.7725 151.307 21.7725C152.435 23.4088 153.202 25.1823 153.608 27.0459C154.06 28.9548 154.24 30.7729 154.24 32.5C154.24 36.8182 153.382 40.5004 151.622 43.5459C149.275 47.5911 145.665 49.6367 140.746 49.6367H126.757V16.9092H140.746ZM187.801 49.6367H180.445L178.369 42.9092H166.365L164.153 49.6367H157.023L168.621 16.9092H176.293L187.801 49.6367ZM133.346 43.9541H139.618C142.822 43.9541 145.033 42.3635 146.297 39.1816C146.974 37.4089 147.335 35.3632 147.335 32.9541C147.335 29.6361 146.839 27.0451 145.801 25.2725C144.763 23.4999 142.687 22.5908 139.618 22.5908H133.346V43.9541ZM168.215 37.2725H176.474L172.412 24.4092L168.215 37.2725ZM68.4346 31.4092H76.1064C77.6408 31.4092 78.769 31.2269 79.5361 30.8633C80.8899 30.2269 81.5674 28.9998 81.5674 27.1816C81.5673 25.1817 80.8895 23.8634 79.626 23.1816C78.8588 22.8181 77.776 22.5908 76.2871 22.5908H68.4346V31.4092ZM176.9 13H170.183L175.449 0H181.605L176.9 13Z" fill="black"/>
    </symbol>
    <symbol id="icon-logo-black" viewBox="0 0 188 63">
        <path d="M25.582 0.116211C26.1804 20.3086 25.9277 32.7354 25.9277 32.7354C25.9495 32.7367 26.8025 32.7856 28.2188 32.8359C28.7371 32.8034 29.0234 32.7842 29.0234 32.7842C29.0234 32.7842 28.6255 20.3741 28.9814 0.194336C28.9814 0.194336 29.3017 33.7197 54.7979 33.5264C28.6097 33.7254 32.982 47.7421 32.9912 62.1426C32.7125 52.8487 30.4599 46.4148 27.5137 42.0039C24.6223 46.4615 22.4532 52.9186 22.2842 62.1807C22.122 47.7671 26.3548 33.671 0 33.8711C25.625 33.6763 25.5822 0.203354 25.582 0.116211ZM101.093 37.0459C101.093 39.2727 101.364 40.9087 101.905 41.9541C102.718 43.8177 104.523 44.7275 107.275 44.7275C110.028 44.7275 111.788 43.8177 112.601 41.9541C113.142 40.9087 113.413 39.2728 113.413 37.0459V16.9092H120.317V37.0459C120.317 40.5002 119.776 43.2277 118.693 45.1367C116.708 48.6821 112.871 50.5 107.275 50.5C101.635 50.4999 97.7992 48.6818 95.8135 45.1367C94.7304 43.2277 94.1885 40.5002 94.1885 37.0459V16.9092H101.093V37.0459ZM77.7314 16.9092C79.9876 16.9547 81.7474 17.2725 82.9658 17.7725C84.1843 18.2725 85.2226 19.0459 86.0801 20.0459C86.802 20.864 87.3439 21.8185 87.75 22.8184C88.2012 23.8183 88.3818 24.9549 88.3818 26.2275C88.3818 27.8183 87.9751 29.3184 87.208 30.8184C86.4408 32.3183 85.132 33.4091 83.3721 34C84.8613 34.5909 85.8995 35.4545 86.5312 36.5908C87.163 37.7272 87.4785 39.4094 87.4785 41.7275V43.9092C87.4785 45.4087 87.5239 46.4086 87.6592 46.9541C87.8397 47.7723 88.2461 48.4093 88.8779 48.8184V49.6367H81.4316C81.206 48.9094 81.0707 48.3178 80.9805 47.8633C80.8 46.9544 80.71 46.0002 80.71 45.0459L80.6641 42.0459C80.6189 39.955 80.2582 38.5451 79.5361 37.8633C78.814 37.1816 77.4151 36.8184 75.4297 36.8184H68.4346V49.6367H61.8008V16.9092H77.7314ZM140.746 16.9092C142.777 16.9546 144.447 17.1822 145.801 17.6367C148.057 18.4094 149.908 19.7725 151.307 21.7725C152.435 23.4088 153.202 25.1823 153.608 27.0459C154.06 28.9548 154.24 30.7729 154.24 32.5C154.24 36.8182 153.382 40.5004 151.622 43.5459C149.275 47.5911 145.665 49.6367 140.746 49.6367H126.757V16.9092H140.746ZM187.801 49.6367H180.445L178.369 42.9092H166.365L164.153 49.6367H157.023L168.621 16.9092H176.293L187.801 49.6367ZM133.346 43.9541H139.618C142.822 43.9541 145.033 42.3635 146.297 39.1816C146.974 37.4089 147.335 35.3632 147.335 32.9541C147.335 29.6361 146.839 27.0451 145.801 25.2725C144.763 23.4999 142.687 22.5908 139.618 22.5908H133.346V43.9541ZM168.215 37.2725H176.474L172.412 24.4092L168.215 37.2725ZM68.4346 31.4092H76.1064C77.6408 31.4092 78.769 31.2269 79.5361 30.8633C80.8899 30.2269 81.5674 28.9998 81.5674 27.1816C81.5673 25.1817 80.8895 23.8634 79.626 23.1816C78.8588 22.8181 77.776 22.5908 76.2871 22.5908H68.4346V31.4092ZM176.9 13H170.183L175.449 0H181.605L176.9 13Z" fill="white"/>
    </symbol>
    <symbol id="icon-dot-color" viewBox="0 0 16 116">
        <path d="M8 0C12.4183 0 16 3.58172 16 8C16 12.0795 12.9462 15.4433 9 15.9355V50.0635C12.9462 50.5557 16 53.9204 16 58C16 62.0795 12.9462 65.4433 9 65.9355V100.063C12.9462 100.556 16 103.92 16 108C16 112.418 12.4183 116 8 116C3.58172 116 0 112.418 0 108C0 103.92 3.05378 100.556 7 100.063V65.9355C3.05384 65.4433 0 62.0795 0 58C0 53.9204 3.05378 50.5557 7 50.0635V15.9355C3.05384 15.4433 0 12.0795 0 8C0 3.58172 3.58172 0 8 0Z" fill="url(#paint0_linear_73_302)"/>
        <defs>
        <linearGradient id="paint0_linear_73_302" x1="9" y1="124" x2="9" y2="1.96486e-07" gradientUnits="userSpaceOnUse">
        <stop stop-color="white"/>
        <stop offset="1" stop-color="#FF0000"/>
        </linearGradient>
        </defs>
    </symbol>
    <symbol id="icon-dot-red" viewBox="0 0 16 116">
        <path d="M8 0C12.4183 0 16 3.58172 16 8C16 12.0795 12.9462 15.4433 9 15.9355V50.0635C12.9462 50.5557 16 53.9204 16 58C16 62.0795 12.9462 65.4433 9 65.9355V100.063C12.9462 100.556 16 103.92 16 108C16 112.418 12.4183 116 8 116C3.58172 116 0 112.418 0 108C0 103.92 3.05378 100.556 7 100.063V65.9355C3.05384 65.4433 0 62.0795 0 58C0 53.9204 3.05378 50.5557 7 50.0635V15.9355C3.05384 15.4433 0 12.0795 0 8C0 3.58172 3.58172 0 8 0Z" fill="#D62020"/>
    </symbol>
    <symbol id="icon-left-arrow" viewBox="0 0 52 32">
        <path d="M0.94973 14.4128L15.1035 0.860704C16.3374 -0.318445 18.2979 -0.282101 19.4872 0.945505C20.6725 2.17311 20.6359 4.12355 19.402 5.30674L10.8375 13.5083L48.8826 13.2862H48.9029C50.6036 13.2862 51.9918 14.6551 51.9999 16.3512C52.0121 18.0553 50.632 19.4444 48.9191 19.4525L10.8537 19.6746L19.3776 27.6742C20.6238 28.8412 20.6806 30.7957 19.5035 32.0354C18.8946 32.6775 18.0706 33.0046 17.2467 33.0046C16.4836 33.0046 15.7205 32.726 15.1197 32.1647L0.965965 18.8791C0.348995 18.3016 -0.00413895 17.494 -0.00819778 16.65C-0.0122566 15.806 0.33276 14.9984 0.941612 14.4128H0.94973Z" fill="#161616"/>
    </symbol>
    <symbol id="icon-right-arrow" viewBox="0 0 52 33">
        <path d="M51.0503 14.4119L36.8965 0.859727C35.6626 -0.319421 33.7021 -0.283078 32.5128 0.944529C31.3275 2.17214 31.3641 4.12258 32.598 5.30576L41.1625 13.5073L3.1174 13.2852H3.09711C1.39638 13.2852 0.00819799 14.6541 7.99673e-05 16.3502C-0.0120971 18.0543 1.36797 19.4434 3.08087 19.4515L41.1463 19.6736L32.6224 27.6732C31.3762 28.8403 31.3194 30.7948 32.4965 32.0345C33.1054 32.6765 33.9294 33.0036 34.7533 33.0036C35.5164 33.0036 36.2795 32.725 36.8803 32.1637L51.034 18.8781C51.651 18.3006 52.0041 17.493 52.0082 16.649C52.0123 15.805 51.6672 14.9974 51.0584 14.4119H51.0503Z" fill="#161616"/>
    </symbol>

    <symbol id="icon-white" viewBox="0 0 88 88">
        <circle cx="44" cy="44" r="44" fill="white"/>
        <path d="M14.069 46.7987C42.875 46.5799 38.2484 61.9871 38.4257 77.7412C38.8863 52.5053 52.9252 46.3173 58.9387 45.557C50.4943 46.0486 42.4076 45.557 42.4076 45.557C42.4076 45.557 42.6841 31.9749 42.03 9.90466C42.03 9.90466 42.1137 46.5857 14.069 46.7987Z" fill="black"/>
        <path d="M73.9632 46.4218C45.3391 46.6392 50.1181 61.9598 50.1281 77.6996C49.3723 52.4978 35.3503 46.529 29.3663 45.8605C37.7624 46.2238 45.7915 45.6103 45.7915 45.6103C45.7915 45.6103 45.3563 32.047 45.7453 9.99067C45.7453 9.99067 46.0957 46.6335 73.9632 46.4218Z" fill="black"/>
    </symbol>

    <symbol id="burger-black" width="34" height="34" viewBox="0 0 34 34">
        <circle cx="17" cy="17" r="17" fill="#121212"/>
        <rect x="8" y="21" width="18" height="2" rx="1" fill="white"/>
        <rect x="8" y="16" width="18" height="2" rx="1" fill="white"/>
        <rect x="8" y="11" width="18" height="2" rx="1" fill="white"/>
    </symbol>

    <symbol id="burger-white" width="34" height="34" viewBox="0 0 34 34">
        <circle cx="17" cy="17" r="17" fill="white"/>
        <rect x="8" y="21" width="18" height="2" rx="1" fill="black"/>
        <rect x="8" y="16" width="18" height="2" rx="1" fill="black"/>
        <rect x="8" y="11" width="18" height="2" rx="1" fill="black"/>
    </symbol>

    <symbol id="icon-black" viewBox="0 0 88 88">
        <circle cx="44" cy="44" r="44" fill="black"/>
        <path d="M14.069 46.7987C42.875 46.5799 38.2484 61.9871 38.4257 77.7412C38.8863 52.5053 52.9252 46.3173 58.9387 45.557C50.4943 46.0486 42.4076 45.557 42.4076 45.557C42.4076 45.557 42.6841 31.9749 42.03 9.90466C42.03 9.90466 42.1137 46.5857 14.069 46.7987Z" fill="white"/>
        <path d="M73.9632 46.4218C45.3391 46.6392 50.1181 61.9598 50.1281 77.6996C49.3723 52.4978 35.3503 46.529 29.3663 45.8605C37.7624 46.2238 45.7915 45.6103 45.7915 45.6103C45.7915 45.6103 45.3563 32.047 45.7453 9.99067C45.7453 9.99067 46.0957 46.6335 73.9632 46.4218Z" fill="white"/>
    </symbol>

    <symbol id="icon-mail" viewBox="0 0 24 24">
        <path d="M12 2C6.48 2 2 6.48 2 12s4.48 10 10 10c2.11 0 4.07-.66 5.7-1.77l1.4 1.43 1.41-1.42-1.4-1.43C20.4 17.08 21 14.62 21 12c0-4.96-4.04-9-9-9zm0 16c-3.31 0-6-2.69-6-6s2.69-6 6-6 6 2.69 6 6c0 1.33-.43 2.55-1.16 3.54-.29-.2-.64-.33-1.02-.33-.95 0-1.74.67-1.95 1.57-.6-.42-1.2-.78-1.87-1.07V12c0-2.21-1.79-4-4-4s-4 1.79-4 4 1.79 4 4 4c.97 0 1.85-.35 2.55-.93.51.45 1.18.73 1.92.73.61 0 1.18-.19 1.64-.51.42 1.06 1.43 1.79 2.63 1.79.52 0 1.01-.08 1.47-.23C15.79 17.33 13.98 18 12 18zm-2-4c-1.1 0-2-.9-2-2s.9-2 2-2 2 .9 2 2-.9 2-2 2z" fill="currentColor"/>
    </symbol>

    <symbol id="icon-telegram" viewBox="0 0 24 24">
        <path d="M12 0C5.373 0 0 5.373 0 12s5.373 12 12 12 12-5.373 12-12S18.627 0 12 0zm5.894 8.221l-1.97 9.28c-.145.658-.537.818-1.084.508l-3-2.21-1.446 1.394c-.16.16-.295.295-.605.295l.215-3.054 5.56-5.022c.24-.213-.054-.334-.373-.121l-6.87 4.326-2.962-.924c-.64-.203-.654-.64.135-.948l11.57-4.46c.536-.196 1.005.128.825.932z" fill="currentColor"/>
    </symbol>

    <symbol id="icon-cta-arrow" viewBox="0 0 60 40">
        <line x1="5" y1="20" x2="55" y2="20" stroke="currentColor" stroke-width="2"></line>
        <polyline points="35,5 55,20 35,35" fill="none" stroke="currentColor" stroke-width="2" stroke-linecap="round" stroke-linejoin="round"></polyline>
    </symbol>
</svg>
